<?xml version="1.0" standalone="no"?>
<!DOCTYPE svg PUBLIC "-//W3C//DTD SVG 20010904//EN"
 "http://www.w3.org/TR/2001/REC-SVG-20010904/DTD/svg10.dtd">
<svg version="1.0" xmlns="http://www.w3.org/2000/svg"
 width="444.000000pt" height="444.000000pt" viewBox="0 0 444.000000 444.000000"
 preserveAspectRatio="xMidYMid meet">
<metadata>
Created by potrace 1.11, written by Peter Selinger 2001-2013
</metadata>
<g transform="translate(0.000000,444.000000) scale(0.100000,-0.100000)"
fill="#000000" stroke="none">
<path d="M1327 4279 c-9 -6 -17 -6 -17 -2 0 4 -4 1 -10 -7 -13 -21 4 -37 79
-72 36 -17 68 -32 71 -33 29 -8 176 -87 255 -136 169 -106 269 -192 369 -315
80 -100 161 -214 150 -214 -3 0 0 -10 8 -22 44 -71 91 -211 123 -373 25 -123
26 -140 22 -371 l-5 -242 22 2 c25 3 146 65 161 83 5 7 34 31 64 53 30 22 51
40 46 40 -5 0 7 11 26 25 108 80 268 287 350 452 30 62 57 111 60 109 4 -5 6
26 9 186 4 227 -86 359 -347 511 -35 20 -63 34 -63 30 0 -3 -6 -1 -12 5 -30
24 -359 142 -397 142 -9 0 -22 5 -29 12 -7 7 -12 9 -12 6 0 -3 -28 1 -62 9
-56 13 -166 38 -208 47 -8 2 -37 7 -65 11 -27 5 -52 9 -55 10 -3 0 -32 4 -65
9 -33 4 -73 10 -90 12 -16 3 -46 7 -65 9 -19 2 -35 4 -35 5 0 1 -29 4 -65 6
-36 3 -82 9 -103 14 -20 4 -40 4 -42 -1 -3 -4 -16 -4 -28 0 -14 5 -30 5 -40 0z"/>
<path d="M3516 3923 c-3 -4 -4 -97 0 -207 8 -256 -14 -449 -63 -563 -9 -21
-16 -46 -14 -55 3 -25 -54 -162 -101 -243 -57 -97 -134 -189 -251 -301 -94
-89 -264 -212 -314 -228 -13 -4 -23 -12 -23 -17 0 -5 -6 -9 -12 -9 -10 0 -202
-91 -228 -108 -16 -11 197 -135 250 -146 8 -2 26 -8 40 -13 114 -47 343 -93
477 -96 57 -1 103 -6 103 -11 0 -5 6 -4 13 1 6 6 37 13 67 16 111 12 193 40
270 92 28 19 50 32 50 29 0 -3 20 18 44 45 31 35 47 46 55 38 7 -7 9 -4 6 11
-2 12 0 22 4 22 5 0 11 8 14 18 3 9 17 44 31 78 14 33 29 85 33 115 14 97 8
406 -8 419 -4 3 -10 28 -13 55 -4 28 -9 57 -11 65 -2 8 -7 29 -9 45 -3 17 -22
84 -41 150 -20 66 -37 127 -39 135 -8 32 -98 278 -121 331 -14 31 -25 63 -25
70 0 8 -11 34 -25 58 -14 23 -25 48 -25 54 0 6 -17 44 -37 84 -32 62 -42 73
-64 73 -14 0 -29 -3 -33 -7z"/>
<path d="M1220 3669 c-133 -36 -281 -122 -438 -253 -92 -77 -360 -347 -427
-431 -22 -27 -52 -63 -67 -80 -16 -16 -28 -33 -28 -36 0 -4 -11 -20 -24 -35
-63 -75 -116 -145 -116 -153 0 -5 -4 -11 -8 -13 -11 -4 -102 -138 -102 -149 0
-5 11 -16 25 -25 24 -16 27 -15 62 12 21 16 47 34 58 40 11 6 47 28 79 48 33
19 61 34 64 32 2 -3 16 7 30 21 14 14 39 32 56 39 17 8 38 18 46 23 20 11 141
66 149 67 3 0 20 6 36 13 39 17 200 62 245 69 19 3 107 6 195 8 178 2 251 -9
430 -66 106 -34 345 -146 345 -161 0 -5 5 -9 11 -9 6 0 53 -29 105 -65 96 -66
124 -77 124 -50 0 20 0 20 10 55 5 18 5 30 0 30 -6 0 -6 10 0 25 5 13 6 26 1
29 -4 3 -8 29 -10 57 -1 29 -4 57 -7 61 -3 5 -7 21 -10 36 -2 15 -11 61 -20
102 -9 41 -17 80 -18 85 -1 6 -4 15 -8 20 -3 6 -18 45 -32 89 -29 86 -100 231
-141 285 -14 19 -25 41 -25 48 0 7 -4 13 -10 13 -5 0 -10 6 -10 14 0 7 -10 21
-22 29 -13 8 -41 31 -63 50 -141 125 -319 171 -485 126z"/>
<path d="M938 2480 c-16 -5 -28 -6 -28 -3 0 3 -7 0 -15 -7 -8 -7 -15 -10 -15
-7 0 10 -81 -18 -145 -49 -59 -29 -72 -36 -100 -62 -8 -7 -15 -10 -15 -6 0 3
-7 1 -15 -6 -10 -9 -15 -9 -15 -1 0 6 -4 11 -9 11 -5 0 -7 -8 -4 -18 2 -10 -3
-24 -11 -31 -9 -8 -16 -20 -16 -27 0 -8 -4 -14 -8 -14 -9 0 -63 -102 -66 -124
-1 -6 -4 -15 -8 -21 -7 -13 -17 -58 -24 -115 -6 -51 -6 -47 -5 -115 0 -27 0
-57 0 -65 -6 -85 47 -389 90 -522 6 -18 26 -82 45 -143 19 -60 51 -155 71
-210 21 -55 38 -104 40 -110 1 -5 14 -36 29 -68 14 -32 26 -61 26 -65 0 -4 11
-28 25 -55 14 -26 22 -47 19 -47 -4 0 0 -8 8 -17 9 -10 19 -29 23 -43 14 -48
56 -110 74 -110 23 0 31 19 31 75 0 24 5 47 11 50 6 4 4 12 -8 20 -16 12 -18
33 -18 242 0 241 15 357 67 516 41 128 152 327 226 406 9 10 31 34 49 52 17
19 38 39 46 46 8 7 17 16 18 20 2 4 31 31 64 58 33 28 62 52 65 55 3 3 28 21
55 39 28 19 52 37 55 40 3 4 25 17 50 29 25 13 72 38 105 56 33 17 80 40 105
51 25 11 53 27 63 36 17 15 16 17 -10 43 -23 23 -74 57 -93 61 -3 1 -27 12
-55 24 -92 42 -258 93 -400 121 -70 15 -337 21 -377 10z"/>
<path d="M4398 1983 c7 -3 16 -2 19 1 4 3 -2 6 -13 5 -11 0 -14 -3 -6 -6z"/>
<path d="M1993 1935 c-102 -43 -359 -267 -470 -410 -26 -33 -52 -63 -58 -67
-6 -5 -6 -8 0 -8 6 0 6 -3 0 -8 -13 -9 -46 -60 -44 -68 0 -4 -3 -10 -8 -13 -5
-3 -24 -40 -42 -81 -19 -41 -37 -84 -42 -95 -14 -32 -25 -105 -28 -185 -1 -41
-5 -78 -7 -82 -3 -4 -1 -8 4 -8 5 0 12 -18 15 -39 14 -105 123 -252 247 -333
83 -53 276 -149 330 -163 3 0 34 -10 70 -22 78 -25 160 -49 275 -79 20 -5 110
-24 130 -28 11 -2 34 -6 50 -10 50 -11 75 -15 159 -27 44 -6 83 -12 86 -14 3
-1 32 -6 65 -9 33 -4 78 -9 100 -12 84 -11 121 -14 155 -15 59 -1 71 1 65 10
-3 5 -1 12 5 16 19 12 -10 45 -58 67 -26 12 -55 28 -64 36 -10 8 -18 12 -18 8
0 -10 -145 71 -247 139 -89 59 -148 105 -219 170 -18 17 -41 38 -51 47 -10 9
-23 23 -28 30 -69 87 -107 135 -113 143 -21 30 -42 75 -42 89 0 9 -3 16 -8 16
-16 0 -109 219 -118 280 -3 18 -8 42 -23 95 -19 71 -26 157 -26 330 0 151 8
255 22 278 2 4 -1 7 -7 7 -6 0 -9 4 -6 9 10 16 -19 19 -51 6z"/>
<path d="M2323 1887 c-5 -28 -6 -60 -1 -69 5 -10 4 -19 -2 -23 -6 -4 -8 -11
-4 -16 6 -11 10 -32 18 -104 17 -154 86 -375 167 -537 20 -40 25 -58 16 -61
-8 -4 -8 -6 -1 -6 6 -1 31 -27 55 -58 40 -52 106 -122 157 -164 71 -59 198
-108 278 -107 29 0 57 -2 63 -6 6 -4 11 -4 11 1 0 4 12 8 28 9 56 1 100 16
211 71 167 82 300 186 501 391 147 149 266 283 353 397 4 6 28 38 55 72 26 34
63 84 82 110 19 26 39 51 44 54 4 4 3 10 -3 13 -6 4 -11 12 -11 18 0 6 7 6 18
-3 9 -7 5 -1 -10 14 -38 37 -65 34 -139 -18 -35 -25 -70 -45 -76 -45 -7 0 -13
-4 -13 -9 0 -5 -10 -13 -22 -17 -13 -4 -25 -10 -28 -14 -5 -8 -138 -76 -210
-108 -129 -58 -318 -108 -402 -107 -21 0 -38 -2 -38 -5 0 -8 -55 -4 -68 4 -7
4 -12 4 -12 -1 0 -4 -20 -8 -45 -8 -25 0 -45 3 -45 7 0 4 -6 5 -14 2 -11 -4
-175 19 -211 30 -5 2 -23 6 -40 10 -16 4 -39 11 -50 16 -11 5 -38 14 -60 21
-60 18 -233 101 -298 142 -32 21 -62 37 -68 37 -5 0 -12 7 -15 15 -4 8 -10 15
-15 15 -5 0 -30 15 -56 34 -90 63 -90 63 -100 3z"/>
</g>
</svg>
