<?xml version="1.0" standalone="no"?>
<!DOCTYPE svg PUBLIC "-//W3C//DTD SVG 20010904//EN"
 "http://www.w3.org/TR/2001/REC-SVG-20010904/DTD/svg10.dtd">
<svg version="1.0" xmlns="http://www.w3.org/2000/svg"
 width="1250.000000pt" height="1250.000000pt" viewBox="0 0 1250.000000 1250.000000"
 preserveAspectRatio="xMidYMid meet">
<metadata>
Created by potrace 1.11, written by Peter Selinger 2001-2013
</metadata>
<g transform="translate(0.000000,1250.000000) scale(0.100000,-0.100000)"
fill="#000000" stroke="none">
<path d="M6448 12085 c-2 -2 -37 -6 -77 -9 -41 -4 -78 -9 -82 -12 -4 -2 -24
-6 -44 -10 -197 -31 -634 -230 -1033 -470 -211 -128 -535 -351 -678 -467 -164
-133 -261 -217 -251 -217 3 0 102 -21 219 -46 117 -25 224 -47 238 -50 14 -3
113 -27 220 -55 107 -28 202 -52 210 -54 65 -14 420 -138 535 -186 102 -43
368 -172 390 -189 6 -4 37 -22 70 -40 116 -64 423 -265 455 -300 3 -3 32 -25
64 -50 220 -167 501 -451 698 -705 84 -108 248 -347 248 -361 0 -4 6 -15 14
-23 39 -45 188 -346 259 -521 77 -188 164 -461 192 -599 2 -9 13 -63 24 -121
21 -107 25 -128 37 -215 3 -27 8 -57 9 -66 2 -8 6 -55 10 -105 4 -49 9 -100
11 -114 4 -34 4 -418 0 -455 -2 -16 -7 -66 -11 -110 -10 -121 -12 -137 -19
-172 -4 -18 -5 -33 -3 -33 8 0 96 137 167 260 138 239 254 502 343 775 57 176
79 258 117 440 20 99 24 118 35 185 3 19 7 46 10 60 2 14 7 52 10 85 4 33 8
67 10 75 17 67 25 520 12 690 -13 173 -23 254 -53 430 -51 301 -162 676 -276
930 -45 101 -122 266 -130 276 -4 6 -20 33 -34 59 -47 90 -76 139 -127 219
-48 75 -156 232 -184 266 -6 8 -33 42 -59 75 -129 162 -317 356 -464 475 -30
25 -57 47 -60 51 -11 13 -159 118 -230 164 -146 94 -366 190 -479 210 -19 3
-37 7 -40 9 -16 10 -264 28 -273 21z"/>
<path d="M8845 10572 c64 -166 246 -757 280 -912 2 -8 17 -73 33 -145 17 -71
33 -148 36 -170 3 -22 8 -51 10 -65 12 -69 27 -169 30 -205 17 -178 21 -271
21 -485 -1 -245 -8 -365 -30 -520 -29 -207 -29 -203 -51 -305 -8 -38 -17 -80
-19 -92 -59 -282 -184 -627 -332 -918 -36 -71 -71 -140 -77 -152 -6 -13 -14
-23 -18 -23 -5 0 -8 -6 -8 -14 0 -20 -227 -356 -312 -462 -360 -449 -793 -802
-1283 -1047 -124 -62 -247 -116 -267 -118 -7 -1 3 -5 22 -9 38 -8 535 -4 613
4 82 9 281 36 307 41 14 3 41 8 60 11 19 3 51 9 70 14 19 5 52 11 74 14 21 4
42 8 46 11 3 2 22 7 41 10 19 3 42 8 51 11 9 3 25 7 35 9 10 2 77 22 150 44
536 164 1017 425 1437 781 54 45 110 94 125 108 15 15 52 50 82 78 450 426
840 1036 1023 1602 52 160 105 378 121 492 2 14 6 39 9 55 3 17 8 57 11 90 4
33 8 76 11 95 7 56 7 300 -1 365 -48 420 -231 697 -661 1002 -426 302 -1002
597 -1522 779 -100 35 -122 40 -117 26z"/>
<path d="M3628 10435 c-2 -1 -46 -5 -98 -9 -134 -8 -293 -27 -395 -47 -27 -6
-61 -12 -75 -15 -14 -3 -43 -10 -65 -16 -22 -5 -51 -12 -65 -15 -139 -24 -462
-143 -639 -234 -194 -99 -293 -169 -416 -293 -195 -197 -297 -413 -350 -743
-12 -76 -14 -91 -20 -152 -26 -248 -34 -587 -20 -886 7 -175 10 -210 19 -305
3 -30 8 -80 11 -110 3 -30 8 -71 10 -90 3 -19 7 -53 10 -75 12 -98 59 -371 65
-378 4 -5 36 24 71 64 35 39 75 84 89 99 14 15 61 67 105 116 90 100 411 424
495 500 133 119 355 294 470 369 25 17 47 33 48 38 2 4 8 7 12 7 5 0 47 25 94
55 46 30 87 55 91 55 4 0 20 9 35 20 49 35 360 186 500 243 275 112 641 216
887 252 23 3 57 8 75 11 18 2 53 7 78 10 25 2 58 7 74 9 143 24 621 23 801 0
17 -2 53 -7 80 -10 28 -4 66 -8 85 -11 19 -2 58 -8 85 -14 28 -5 61 -11 75
-14 66 -11 261 -59 357 -87 283 -82 575 -206 833 -353 118 -67 274 -170 379
-250 41 -31 76 -54 78 -52 4 4 -33 75 -115 226 -162 296 -406 615 -676 886
-405 405 -848 698 -1366 904 -139 56 -375 135 -429 145 -14 2 -37 9 -51 14
-23 9 -140 37 -200 47 -14 3 -32 7 -40 9 -8 2 -31 7 -50 10 -19 3 -46 8 -60
10 -53 11 -69 13 -121 20 -30 4 -56 8 -59 10 -3 1 -40 6 -82 10 -42 3 -99 8
-125 11 -56 6 -490 14 -495 9z"/>
<path d="M5307 8534 c-1 -1 -69 -4 -152 -8 -82 -3 -159 -7 -170 -10 -11 -2
-56 -7 -100 -10 -44 -4 -87 -9 -95 -11 -8 -2 -33 -7 -55 -10 -23 -3 -52 -8
-65 -10 -14 -3 -44 -8 -68 -11 -32 -4 -292 -66 -412 -98 -80 -22 -303 -100
-385 -135 -11 -5 -44 -19 -74 -31 -88 -36 -297 -138 -395 -194 -135 -77 -141
-81 -146 -86 -3 -3 -26 -18 -51 -32 -37 -22 -236 -161 -282 -198 -284 -227
-519 -458 -711 -700 -37 -47 -75 -94 -84 -105 -33 -40 -181 -263 -239 -360
-160 -266 -329 -664 -393 -925 -27 -110 -45 -193 -55 -255 -3 -16 -8 -43 -11
-58 -19 -91 -29 -232 -29 -397 0 -269 28 -405 128 -610 17 -36 35 -66 39 -68
5 -2 8 -8 8 -13 0 -19 110 -157 186 -233 107 -108 247 -217 444 -347 91 -60
170 -113 175 -117 6 -4 23 -14 38 -22 14 -8 64 -37 109 -64 175 -103 464 -251
663 -339 154 -69 461 -187 484 -187 5 0 -5 39 -21 88 -16 48 -32 98 -34 111
-3 14 -7 28 -10 32 -12 20 -140 454 -179 609 -28 111 -32 127 -40 175 -3 17
-8 38 -11 47 -8 26 -27 133 -40 223 -3 17 -7 39 -9 51 -2 11 -7 52 -10 90 -4
38 -8 75 -11 82 -23 74 -23 716 0 862 2 14 7 52 11 85 4 32 9 68 11 80 3 11 7
40 10 64 22 203 159 693 253 906 12 28 27 63 34 80 7 16 45 97 86 180 322 652
853 1225 1471 1588 63 37 122 72 130 77 42 25 284 141 348 165 39 16 71 30 69
32 -6 6 -353 22 -360 17z"/>
<path d="M4263 7008 c-62 -99 -112 -186 -161 -278 -24 -47 -47 -89 -50 -95
-12 -19 -84 -180 -129 -290 -68 -167 -142 -394 -174 -533 -6 -26 -12 -54 -15
-62 -43 -160 -87 -458 -102 -680 -12 -189 -5 -578 12 -680 3 -14 9 -65 16
-115 17 -136 47 -293 90 -465 224 -893 738 -1678 1413 -2158 490 -350 907
-405 1421 -187 510 215 1151 629 1615 1042 l44 39 -164 32 c-90 18 -173 34
-184 37 -11 2 -74 16 -140 30 -66 14 -127 27 -135 29 -8 2 -64 16 -125 31
-113 27 -391 106 -454 130 -294 109 -401 154 -571 243 -159 83 -146 75 -276
154 -357 216 -706 512 -976 828 -126 147 -117 135 -221 280 -317 443 -539 952
-646 1485 -11 55 -22 114 -25 130 -10 66 -16 112 -21 155 -3 25 -7 55 -10 68
-28 149 -22 719 11 870 7 35 -1 27 -43 -40z"/>
<path d="M10875 6308 c-175 -209 -591 -633 -785 -801 -537 -463 -1160 -780
-1845 -936 -115 -26 -282 -54 -395 -66 -36 -4 -72 -9 -81 -10 -30 -6 -274 -17
-374 -18 -91 0 -303 10 -365 17 -14 2 -54 7 -90 10 -651 72 -1332 346 -1863
748 -42 32 -77 57 -77 54 0 -17 155 -301 225 -411 54 -86 109 -169 116 -175 3
-3 20 -27 38 -53 186 -273 576 -672 862 -880 386 -281 718 -455 1149 -602 138
-46 429 -125 515 -138 17 -3 84 -14 150 -25 66 -11 146 -23 178 -26 31 -3 81
-8 110 -11 28 -4 77 -8 107 -10 67 -5 416 -6 485 0 101 7 205 16 222 19 10 2
41 7 68 10 28 4 64 9 80 12 55 9 330 66 337 70 4 3 52 18 106 34 472 140 834
369 1015 642 128 191 208 451 232 753 4 39 8 86 10 105 21 196 21 776 1 985
-2 17 -6 66 -10 110 -4 44 -9 91 -11 105 -2 14 -7 54 -10 90 -4 36 -9 72 -10
81 -2 9 -6 40 -10 70 -3 30 -8 61 -10 69 -3 8 -7 35 -10 60 -3 25 -7 52 -10
60 -2 8 -7 31 -10 50 -3 19 -8 36 -9 38 -2 1 -16 -12 -31 -30z"/>
</g>
</svg>
